<svg xmlns="http://www.w3.org/2000/svg" viewBox="0 0 140 50"><defs><style>.a{fill:#dfdfdf;opacity:0.35;}.b{fill:#5d5d5d;}.c{fill:#aeaeae;}.d{fill:#b2b2b2;}.e{fill:#959595;}.f{fill:#656565;}.g{fill:#414042;}.h{fill:#b3b3b3;}.i{fill:#939598;}.j{fill:#525252;}.k{fill:#fff;}.l{fill:#bcbec0;}</style></defs><circle class="a" cx="122.14" cy="8.4" r="4.14"/><polygon class="b" points="86.35 26.68 90.2 32.16 94.24 37.4 88.43 40.88 84.56 35.36 81.01 30.96 86.35 26.68"/><polygon class="c" points="86.5 28.18 89.45 32.32 92.56 36.29 87.96 38.9 84.98 34.73 82.25 31.4 86.5 28.18"/><path class="c" d="M91.2,38.26a.5.5,0,1,1-.5-.49A.49.49,0,0,1,91.2,38.26Z"/><polygon class="d" points="85.39 13.05 86.39 19.04 96.72 16.15 94.38 10.09 89.39 11.69 85.39 13.05"/><polygon class="e" points="85.54 12.62 85.16 11.12 89.25 10.13 90.81 11.08 85.54 12.62"/><polygon class="f" points="138.95 30.4 132.08 31.32 129.51 24.5 125.23 31.45 134.35 37.55 138.95 30.4"/><polygon class="c" points="139 30.39 129.6 24.42 132.35 30.69 139 30.39"/><polygon class="g" points="105.73 8.27 105.28 10.72 107.54 11.31 107.81 14.54 110.62 14.84 109.9 10.23 105.73 8.27"/><path class="g" d="M118.41,25.14c0-.2,0-.4,0-.61a9.82,9.82,0,0,0-19.63,0c0,.18,0,.36,0,.55a7,7,0,0,0-.12,1.32v6c0,2.95,1.75,5.33,3.92,5.33h12c2.17,0,3.92-2.38,3.92-5.33v-6A7.38,7.38,0,0,0,118.41,25.14Z"/><path class="g" d="M98.17,24.82,94,25.2a4.87,4.87,0,0,0-4.29-2.61,5,5,0,0,0-4.93,5.14,5.58,5.58,0,0,0,.16,1.3,2.63,2.63,0,1,1,2.58,3.18h-.24a4.72,4.72,0,0,0,2.43.67,5,5,0,0,0,4.94-5.07L98,27.57Z"/><polyline class="b" points="86.98 27.59 86.33 26.68 81.08 30.98 82.1 31.47"/><path class="g" d="M127,19.38a4.88,4.88,0,0,0-4.21,2.48l-4.21,0,.55,2.45,2.94.12v.07A5,5,0,0,0,127,29.67a4.74,4.74,0,0,0,2.44-.68l-.24,0a2.76,2.76,0,0,1,0-5.52,2.65,2.65,0,0,1,2.57,2.33A5.13,5.13,0,0,0,127,19.38Z"/><path class="g" d="M105.05,8.27l-4.79-.48A4.89,4.89,0,0,0,96,5.14,5,5,0,0,0,91,10.28a5.43,5.43,0,0,0,.16,1.29,2.61,2.61,0,0,1,5.19.44,2.68,2.68,0,0,1-2.61,2.75h-.24a4.73,4.73,0,0,0,2.44.67,5,5,0,0,0,4.93-5l3.9.14Z"/><path class="g" d="M123.7,8.43A1.48,1.48,0,1,1,122.22,7,1.45,1.45,0,0,1,123.7,8.43Z"/><polyline class="g" points="120.99 9.44 114.02 16 115.74 17.37 121.36 9.74"/><rect class="h" x="99.57" y="25.28" width="18.09" height="3.07"/><rect class="i" x="112.04" y="25.28" width="3.33" height="3.07"/><path class="j" d="M115.81,20.53c-.28.56-2,.16-3.81-.89s-3.09-2.35-2.82-2.91,2-.16,3.81.89S116.08,20,115.81,20.53Z"/><rect class="k" x="114.05" y="25.39" width="1.21" height="1.17"/><path class="g" d="M108,42.1c0,1.36-.81,2.45-1.8,2.45H101c-1,0-1.79-1.09-1.79-2.45h0c0-1.35.8-2.44,1.79-2.44l6-.44c1,0,.91,1.53.91,2.88Z"/><path class="g" d="M109.76,42.1c0,1.36.8,2.45,1.79,2.45h5.16c1,0,1.8-1.09,1.8-2.45h0c0-1.35-.81-2.44-1.8-2.44l-6.07-.44c-1,0-.88,1.53-.88,2.88Z"/><path class="l" d="M28.35,20.93v4.48a10.49,10.49,0,0,0-6.78-2.74,8.64,8.64,0,0,0-6.51,2.77,9.37,9.37,0,0,0-2.66,6.75,9.16,9.16,0,0,0,2.66,6.65,8.81,8.81,0,0,0,6.52,2.7A8,8,0,0,0,25,40.9,10.05,10.05,0,0,0,26.59,40a20.9,20.9,0,0,0,1.76-1.33v4.56a13.71,13.71,0,0,1-6.82,1.83,12.57,12.57,0,0,1-9.16-3.75,12.39,12.39,0,0,1-3.78-9.11,12.9,12.9,0,0,1,3.16-8.53A12.61,12.61,0,0,1,21.83,19.1,12.8,12.8,0,0,1,28.35,20.93Z"/><path class="l" d="M45.47,37.59H34.15a4.8,4.8,0,0,0,1.27,3.1,3.88,3.88,0,0,0,2.87,1.13,3.72,3.72,0,0,0,2.25-.65,9.1,9.1,0,0,0,2-2.4l3.08,1.72a12.65,12.65,0,0,1-1.51,2.09A8.28,8.28,0,0,1,42.41,44a6.63,6.63,0,0,1-2,.82,9.79,9.79,0,0,1-2.29.26,7.46,7.46,0,0,1-5.68-2.27,8.54,8.54,0,0,1-2.14-6.06,8.74,8.74,0,0,1,2.08-6.07A7.12,7.12,0,0,1,38,28.39a7.1,7.1,0,0,1,5.52,2.22,8.75,8.75,0,0,1,2,6.12Zm-3.74-3a3.51,3.51,0,0,0-3.68-2.92,3.64,3.64,0,0,0-1.25.21,3.58,3.58,0,0,0-1.07.58,3.77,3.77,0,0,0-.81.92,4.14,4.14,0,0,0-.52,1.21Z"/><path class="l" d="M48.13,28.83h3.65v1.41a7,7,0,0,1,1.79-1.44,4.1,4.1,0,0,1,1.88-.41,6,6,0,0,1,3,.94L56.8,32.67a3.55,3.55,0,0,0-2-.74q-3,0-3,4.51v8.19H48.13Z"/><path class="l" d="M62.88,17.23V30.66a6.74,6.74,0,0,1,5-2.27,6.82,6.82,0,0,1,5.32,2.39,8.49,8.49,0,0,1,2.13,5.9,8.72,8.72,0,0,1-2.14,6,6.91,6.91,0,0,1-5.37,2.37A6.81,6.81,0,0,1,62.88,43v1.66H59.23V17.23Zm8.68,19.61a5.5,5.5,0,0,0-1.24-3.7,4,4,0,0,0-3.13-1.46,4.19,4.19,0,0,0-3.27,1.42,5.2,5.2,0,0,0-1.25,3.63,5.33,5.33,0,0,0,1.23,3.68,4.09,4.09,0,0,0,3.24,1.41,4,4,0,0,0,3.15-1.41A5.2,5.2,0,0,0,71.56,36.84Z"/><path class="l" d="M6.63,7.34V8.46h0a2,2,0,0,1,1-1,3.58,3.58,0,0,1,1.51-.31,3.44,3.44,0,0,1,1.58.35,3.26,3.26,0,0,1,1.13.95,4.5,4.5,0,0,1,.68,1.39,6,6,0,0,1,.22,1.66,6.07,6.07,0,0,1-.22,1.67,3.85,3.85,0,0,1-.67,1.36,3,3,0,0,1-1.12.92,3.42,3.42,0,0,1-1.57.34,3.93,3.93,0,0,1-.65-.06,4.77,4.77,0,0,1-.71-.21,3.18,3.18,0,0,1-.66-.39,2.1,2.1,0,0,1-.52-.62h0v4.26H5.34V7.34Zm4.64,2.94a3.18,3.18,0,0,0-.44-1,2.26,2.26,0,0,0-.76-.68A2.22,2.22,0,0,0,9,8.35a2.17,2.17,0,0,0-1.11.27,2.28,2.28,0,0,0-.74.71,3.31,3.31,0,0,0-.42,1,4.92,4.92,0,0,0-.13,1.14,5.08,5.08,0,0,0,.14,1.18,2.91,2.91,0,0,0,.43,1,2.32,2.32,0,0,0,.77.69,2.24,2.24,0,0,0,1.14.27,2,2,0,0,0,1.12-.28,2.07,2.07,0,0,0,.72-.72,3.19,3.19,0,0,0,.39-1,5.14,5.14,0,0,0,.13-1.18A4.28,4.28,0,0,0,11.27,10.28Z"/><path class="l" d="M13.51,9.78a3.92,3.92,0,0,1,.73-1.37,3.5,3.5,0,0,1,1.2-.92,3.76,3.76,0,0,1,1.64-.34,3.71,3.71,0,0,1,1.65.34,3.41,3.41,0,0,1,1.2.92,3.92,3.92,0,0,1,.73,1.37,5.89,5.89,0,0,1,.24,1.71,5.75,5.75,0,0,1-.24,1.69,3.92,3.92,0,0,1-.73,1.37,3.39,3.39,0,0,1-1.2.91,3.86,3.86,0,0,1-1.65.33,3.91,3.91,0,0,1-1.64-.33,3.48,3.48,0,0,1-1.2-.91,3.92,3.92,0,0,1-.73-1.37,5.75,5.75,0,0,1-.24-1.69A5.89,5.89,0,0,1,13.51,9.78Zm1.32,3a2.77,2.77,0,0,0,.52,1,2.47,2.47,0,0,0,.78.6,2.28,2.28,0,0,0,1.91,0,2.47,2.47,0,0,0,.78-.6,2.77,2.77,0,0,0,.52-1,4.19,4.19,0,0,0,.19-1.33,4.25,4.25,0,0,0-.19-1.34,2.77,2.77,0,0,0-.52-1A2.37,2.37,0,0,0,18,8.56a2.28,2.28,0,0,0-1.91,0,2.37,2.37,0,0,0-.78.61,2.77,2.77,0,0,0-.52,1,4.25,4.25,0,0,0-.19,1.34A4.19,4.19,0,0,0,14.83,12.82Z"/><path class="l" d="M28.23,15.61,26.63,9h0L25,15.61h-1.4L21.1,7.34h1.43l1.78,6.77h0l1.58-6.77h1.41L29,14.11h0l1.77-6.77H32.1l-2.51,8.27Z"/><path class="l" d="M38.29,15.09a3.45,3.45,0,0,1-2.22.7,3.88,3.88,0,0,1-1.63-.32,3.15,3.15,0,0,1-1.17-.9,3.78,3.78,0,0,1-.7-1.37,6.83,6.83,0,0,1-.27-1.75,5.26,5.26,0,0,1,.27-1.72,4.19,4.19,0,0,1,.77-1.36,3.41,3.41,0,0,1,1.17-.9A3.48,3.48,0,0,1,36,7.15a3,3,0,0,1,1.74.46,3.42,3.42,0,0,1,1.11,1.16,4.8,4.8,0,0,1,.58,1.53,6.78,6.78,0,0,1,.13,1.59H33.67a3.51,3.51,0,0,0,.12,1,2.42,2.42,0,0,0,.44.86,2.14,2.14,0,0,0,.78.6,2.53,2.53,0,0,0,1.11.23,2.2,2.2,0,0,0,1.34-.4A2,2,0,0,0,38.15,13h1.28A3.33,3.33,0,0,1,38.29,15.09ZM38,9.77A2.67,2.67,0,0,0,37.51,9a2.35,2.35,0,0,0-.7-.5,2.18,2.18,0,0,0-.89-.18,2.21,2.21,0,0,0-.91.18,2.34,2.34,0,0,0-.69.51,2.41,2.41,0,0,0-.45.74,2.8,2.8,0,0,0-.2.91h4.51A3.15,3.15,0,0,0,38,9.77Z"/><path class="l" d="M41.45,7.34V9.09h0A3.54,3.54,0,0,1,42.64,7.6a2.78,2.78,0,0,1,1.73-.45V8.59a3.64,3.64,0,0,0-1.32.22,2,2,0,0,0-.88.66,2.68,2.68,0,0,0-.49,1,6,6,0,0,0-.15,1.41v3.68h-1.3V7.34Z"/><path class="l" d="M50,15.09a3.41,3.41,0,0,1-2.22.7,3.92,3.92,0,0,1-1.63-.32,3.11,3.11,0,0,1-1.16-.9,3.8,3.8,0,0,1-.71-1.37A6.83,6.83,0,0,1,44,11.45a5.26,5.26,0,0,1,.28-1.72,4,4,0,0,1,.77-1.36,3.31,3.31,0,0,1,1.17-.9,3.45,3.45,0,0,1,1.48-.32,3,3,0,0,1,1.74.46,3.52,3.52,0,0,1,1.11,1.16,4.8,4.8,0,0,1,.58,1.53,8.05,8.05,0,0,1,.13,1.59H45.4a3.51,3.51,0,0,0,.12,1,2.59,2.59,0,0,0,.44.86,2.33,2.33,0,0,0,.78.6,2.53,2.53,0,0,0,1.11.23,2.21,2.21,0,0,0,1.35-.4A2.07,2.07,0,0,0,49.89,13h1.27A3.33,3.33,0,0,1,50,15.09Zm-.31-5.32A2.46,2.46,0,0,0,49.24,9a2.35,2.35,0,0,0-.7-.5,2.14,2.14,0,0,0-.89-.18A2,2,0,0,0,46.06,9a2.25,2.25,0,0,0-.46.74,3.08,3.08,0,0,0-.2.91h4.52A2.87,2.87,0,0,0,49.71,9.77Z"/><path class="l" d="M57.74,15.61V14.49h0a2,2,0,0,1-1,1,3.72,3.72,0,0,1-1.5.3,3.45,3.45,0,0,1-1.59-.35,3.36,3.36,0,0,1-1.13-.95,4.07,4.07,0,0,1-.67-1.37,5.67,5.67,0,0,1-.23-1.67,6,6,0,0,1,.22-1.66,4.07,4.07,0,0,1,.67-1.37,3.27,3.27,0,0,1,1.12-.93,3.44,3.44,0,0,1,1.58-.34,3.83,3.83,0,0,1,.65.06,4,4,0,0,1,.7.22,3.23,3.23,0,0,1,.66.4,2.1,2.1,0,0,1,.52.62h0V4.19H59V15.61ZM53.1,12.68a3.12,3.12,0,0,0,.44,1,2.19,2.19,0,0,0,.76.69,2.22,2.22,0,0,0,1.09.26,2.08,2.08,0,0,0,1.11-.28,2.18,2.18,0,0,0,.74-.71,3.11,3.11,0,0,0,.42-1,4.78,4.78,0,0,0,.13-1.13,5.08,5.08,0,0,0-.14-1.18,2.91,2.91,0,0,0-.43-1,2.26,2.26,0,0,0-.77-.7,2.34,2.34,0,0,0-1.14-.26,2,2,0,0,0-1.84,1,3.24,3.24,0,0,0-.39,1A5.69,5.69,0,0,0,53,11.55,4.32,4.32,0,0,0,53.1,12.68Z"/><path class="l" d="M65.38,4.19V8.46h0a2,2,0,0,1,1-1,3.53,3.53,0,0,1,1.5-.31,3.45,3.45,0,0,1,1.59.35,3.36,3.36,0,0,1,1.13.95,4.48,4.48,0,0,1,.67,1.39,5.64,5.64,0,0,1,.23,1.66,6.07,6.07,0,0,1-.22,1.67,4,4,0,0,1-.67,1.36,3.13,3.13,0,0,1-1.12.92,3.44,3.44,0,0,1-1.58.34,3.91,3.91,0,0,1-.64-.06,4.44,4.44,0,0,1-.71-.21,3.18,3.18,0,0,1-.66-.39,2.1,2.1,0,0,1-.52-.62h0v1.1h-1.3V4.19ZM70,10.28a3.18,3.18,0,0,0-.44-1,2.26,2.26,0,0,0-.76-.68,2.22,2.22,0,0,0-1.09-.26,2.12,2.12,0,0,0-1.11.27,2.28,2.28,0,0,0-.74.71,2.87,2.87,0,0,0-.42,1,4.92,4.92,0,0,0-.13,1.14,5.08,5.08,0,0,0,.14,1.18,2.91,2.91,0,0,0,.43,1,2.24,2.24,0,0,0,1.91,1,2,2,0,0,0,1.11-.28,2.18,2.18,0,0,0,.73-.72,3.19,3.19,0,0,0,.39-1,5.76,5.76,0,0,0,.12-1.18A4.73,4.73,0,0,0,70,10.28Z"/><path class="l" d="M75.53,16.72a8.52,8.52,0,0,1-.45,1,2.65,2.65,0,0,1-.49.68,1.52,1.52,0,0,1-.59.39,2.19,2.19,0,0,1-.75.12,2.38,2.38,0,0,1-.46,0,1.67,1.67,0,0,1-.44-.11V17.53a1.77,1.77,0,0,0,.39.14,1.48,1.48,0,0,0,.37.06,1.08,1.08,0,0,0,.66-.2,1.35,1.35,0,0,0,.41-.57l.53-1.39L71.59,7.34h1.46l2.3,6.77h0l2.2-6.77H79Z"/></svg>